<svg xmlns="http://www.w3.org/2000/svg" version="1.1" xmlns:xlink="http://www.w3.org/1999/xlink"
    xmlns:svgjs="http://svgjs.dev/svgjs" width="2000" height="454" viewBox="0 0 2000 454">
    <g transform="matrix(1,0,0,1,-1.2121212121213603,-0.3004559719706208)">
        <svg viewBox="0 0 396 90" data-background-color="#333333"
            preserveAspectRatio="xMidYMid meet" height="454" width="2000"
            xmlns="http://www.w3.org/2000/svg" xmlns:xlink="http://www.w3.org/1999/xlink">
            <g id="tight-bounds" transform="matrix(1,0,0,1,0.24000000000003752,0.05956175655805396)">
                <svg viewBox="0 0 395.5199999999999 89.8808764868839" height="89.8808764868839"
                    width="395.5199999999999">
                    <g>
                        <svg viewBox="0 0 501.08673633516634 113.87063879894026"
                            height="89.8808764868839" width="395.5199999999999">
                            <g transform="matrix(1,0,0,1,105.56673633516635,0)">
                                <svg viewBox="0 0 395.52 113.87063879894026"
                                    height="113.87063879894026" width="395.52">
                                    <g id="textblocktransform">
                                        <svg viewBox="0 0 395.52 113.87063879894026"
                                            height="113.87063879894026" width="395.52"
                                            id="textblock">
                                            <g>
                                                <svg viewBox="0 0 395.52 113.87063879894026"
                                                    height="113.87063879894026" width="395.52">
                                                    <g transform="matrix(1,0,0,1,0,0)">
                                                        <svg width="395.52"
                                                            viewBox="2.25 -38.85 169.83 48.900000000000006"
                                                            height="113.87063879894026"
                                                            data-palette-color="#7fc37e">
                                                            <path
                                                                d="M5.95-20.9L5.95-30.15 11.1-30.15 11.1-20.9 16.7-20.9 16.7-16.85 11.1-16.85 11.1 0 5.95 0 5.95-16.85 2.25-16.85 2.25-20.9 5.95-20.9ZM22.25-20.95L26.85-20.95 27.35-14.95 27.1-15.75Q27.95-17.65 29.5-19 31.05-20.35 32.72-21.08 34.4-21.8 35.55-21.8L35.55-21.8 35.3-16.7Q32.9-16.85 31.12-15.8 29.35-14.75 28.35-13 27.35-11.25 27.35-9.25L27.35-9.25 27.35 0 22.25 0 22.25-20.95ZM49.6 0.5L49.6 0.5Q46.65 0.5 44.25-0.73 41.85-1.95 40.45-4.4 39.05-6.85 39.05-10.45L39.05-10.45Q39.05-14 40.52-16.55 42-19.1 44.42-20.48 46.85-21.85 49.7-21.85L49.7-21.85Q52.7-21.85 54.62-20.58 56.55-19.3 57.65-17.6L57.65-17.6 57.3-16.8 57.8-20.95 62.55-20.95 62.55 0 57.4 0 57.4-5.25 57.95-4Q57.75-3.6 57.1-2.88 56.45-2.15 55.37-1.35 54.3-0.55 52.87-0.03 51.45 0.5 49.6 0.5ZM51-3.7L51-3.7Q52.65-3.7 53.95-4.3 55.25-4.9 56.15-6 57.05-7.1 57.4-8.6L57.4-8.6 57.4-12.95Q57-14.35 56.05-15.38 55.1-16.4 53.77-17 52.45-17.6 50.85-17.6L50.85-17.6Q49.05-17.6 47.55-16.73 46.05-15.85 45.15-14.3 44.25-12.75 44.25-10.7L44.25-10.7Q44.25-8.75 45.17-7.15 46.1-5.55 47.65-4.63 49.2-3.7 51-3.7ZM76.54 0.45L76.54 0.45Q74.24 0.45 72.09-0.38 69.94-1.2 68.54-2.8L68.54-2.8 70.74-5.7Q72.09-4.45 73.47-3.83 74.84-3.2 76.09-3.2L76.09-3.2Q77.09-3.2 77.89-3.43 78.69-3.65 79.19-4.2 79.69-4.75 79.69-5.65L79.69-5.65Q79.69-6.7 78.99-7.3 78.29-7.9 77.19-8.3 76.09-8.7 74.84-9.05L74.84-9.05Q72.19-9.9 70.84-11.48 69.49-13.05 69.49-15.2L69.49-15.2Q69.49-16.85 70.32-18.32 71.14-19.8 72.84-20.75 74.54-21.7 77.04-21.7L77.04-21.7Q79.34-21.7 81.09-21.18 82.84-20.65 84.34-19.4L84.34-19.4 82.34-16.3Q81.44-17.2 80.22-17.68 78.99-18.15 77.99-18.2L77.99-18.2Q77.09-18.2 76.34-17.93 75.59-17.65 75.14-17.13 74.69-16.6 74.69-15.9L74.69-15.9Q74.64-14.9 75.37-14.28 76.09-13.65 77.24-13.28 78.39-12.9 79.49-12.5L79.49-12.5Q81.04-12.05 82.24-11.28 83.44-10.5 84.14-9.4 84.84-8.3 84.84-6.6L84.84-6.6Q84.84-4.75 83.94-3.13 83.04-1.5 81.19-0.53 79.34 0.45 76.54 0.45ZM96.34 0L91.19 0 91.19-38.85 96.19-38.85 96.19-16.2 96.14-17.05Q97.19-19.1 99.34-20.45 101.49-21.8 104.49-21.8L104.49-21.8Q107.44-21.8 109.37-20.05 111.29-18.3 111.34-15.5L111.34-15.5 111.34 0 106.19 0 106.19-13.7Q106.14-15.3 105.24-16.32 104.34-17.35 102.44-17.4L102.44-17.4Q100.74-17.4 99.34-16.38 97.94-15.35 97.14-13.58 96.34-11.8 96.34-9.55L96.34-9.55 96.34 0ZM119.24 0L119.24-20.95 124.39-20.95 124.39 0 119.24 0ZM118.94-28.45L118.94-28.45Q118.94-29.65 119.89-30.45 120.84-31.25 121.94-31.25L121.94-31.25Q123.09-31.25 123.99-30.45 124.89-29.65 124.89-28.45L124.89-28.45Q124.89-27.25 123.99-26.48 123.09-25.7 121.94-25.7L121.94-25.7Q120.84-25.7 119.89-26.48 118.94-27.25 118.94-28.45ZM139.14 0L133.99 0 133.99-16.4 130.44-16.4 130.44-20.95 133.99-20.95 133.99-29.45Q133.99-33.95 136.14-36.4 138.29-38.85 142.39-38.85L142.39-38.85Q143.49-38.85 144.84-38.53 146.19-38.2 147.24-37.5L147.24-37.5 145.09-33.75Q144.64-34.25 144.06-34.45 143.49-34.65 142.89-34.65L142.89-34.65Q141.14-34.65 140.14-33.45 139.14-32.25 139.14-29.35L139.14-29.35 139.14-20.95 145.74-20.95 145.74-16.4 139.14-16.4 139.14 0ZM158.58 10.05L153.53 10.05 167.38-20.95 172.08-20.95 158.58 10.05ZM162.78-2.45L158.83 0.15 148.68-20.95 154.48-20.95 162.78-2.45Z"
                                                                opacity="1"
                                                                transform="matrix(1,0,0,1,0,0)"
                                                                fill="#ffffff"
                                                                class="wordmark-text-0"
                                                                data-fill-palette-color="primary"
                                                                id="text-0"></path>
                                                        </svg>
                                                    </g>
                                                </svg>
                                            </g>
                                        </svg>
                                    </g>
                                </svg>
                            </g>
                            <g transform="matrix(1,0,0,1,0,17.593013694436266)">
                                <svg viewBox="0 0 78.68461141006773 78.68461141006773"
                                    height="78.68461141006773" width="78.68461141006773">
                                    <g>
                                        <svg></svg>
                                    </g>
                                    <g id="icon-0">
                                        <svg viewBox="0 0 78.68461141006773 78.68461141006773"
                                            height="78.68461141006773" width="78.68461141006773">
                                            <g>
                                                <path transform="scale(0.78685,0.78685)"
                                                    d="M30 100c-16.569 0-30-13.431-30-30v-40c0-16.569 13.431-30 30-30h40c16.569 0 30 13.431 30 30v40c0 16.569-13.431 30-30 30z"
                                                    fill="#ffffff" fill-rule="nonzero" stroke="none"
                                                    stroke-width="1" stroke-linecap="butt"
                                                    stroke-linejoin="miter" stroke-miterlimit="10"
                                                    stroke-dasharray="" stroke-dashoffset="0"
                                                    font-family="none" font-weight="none"
                                                    font-size="none" text-anchor="none"
                                                    style="mix-blend-mode: normal"
                                                    data-fill-palette-color="accent"></path>
                                            </g>
                                            <g
                                                transform="matrix(1,0,0,1,20.029305900198427,15.736922282013548)">
                                                <svg
                                                    viewBox="0 0 38.62599960967088 47.210766846040634"
                                                    height="47.210766846040634"
                                                    width="38.62599960967088">
                                                    <g>
                                                        <svg xmlns="http://www.w3.org/2000/svg"
                                                            xmlns:xlink="http://www.w3.org/1999/xlink"
                                                            version="1.1" x="0" y="0"
                                                            viewBox="18.75 14.026 42.501000000000005 51.947"
                                                            enable-background="new 0 0 80 80"
                                                            xml:space="preserve"
                                                            height="47.210766846040634"
                                                            width="38.62599960967088"
                                                            class="icon-cg-0"
                                                            data-fill-palette-color="quaternary"
                                                            id="cg-0"><path d="M57.5 14.026h-35c-2.068 0-3.75 1.683-3.75 3.75 0 1.603 1.017 2.964 2.435 3.499v33.448c0 6.203 5.046 11.25 11.25 11.25h15c6.203 0 11.25-5.047 11.25-11.25V21.316c1.486-0.499 2.566-1.889 2.566-3.54C61.25 15.709 59.566 14.026 57.5 14.026zM39.928 24.028c1.652 0 2.996 1.345 2.996 2.997 0 1.653-1.344 2.998-2.996 2.998-1.652 0-2.996-1.345-2.996-2.998C36.932 25.373 38.276 24.028 39.928 24.028zM33.331 56.448c0 1.93-1.457 3.5-3.25 3.5-1.791 0-3.25-1.57-3.25-3.5V27.323c0-1.93 1.459-3.5 3.25-3.5 1.793 0 3.25 1.57 3.25 3.5V56.448zM43.248 56.448c0 1.93-1.459 3.5-3.25 3.5-1.793 0-3.25-1.57-3.25-3.5v-19.88c0-1.93 1.457-3.5 3.25-3.5 1.791 0 3.25 1.57 3.25 3.5V56.448zM53.08 56.448c0 1.93-1.457 3.5-3.25 3.5-1.791 0-3.25-1.57-3.25-3.5V27.323c0-1.93 1.459-3.5 3.25-3.5 1.793 0 3.25 1.57 3.25 3.5V56.448z" fill="#000000" data-fill-palette-color="quaternary"></path></svg>
                                                    </g>
                                                </svg>
                                            </g>
                                        </svg>
                                    </g>
                                </svg>
                            </g>
                        </svg>
                    </g>
                    <defs></defs>
                </svg>
                <rect width="395.5199999999999" height="89.8808764868839" fill="none" stroke="none"
                    visibility="hidden"></rect>
            </g>
        </svg>
    </g>
</svg>